<svg xmlns="http://www.w3.org/2000/svg" xmlns:xlink="http://www.w3.org/1999/xlink" viewBox="0 0 1440 415" width="1440" height="415" preserveAspectRatio="xMidYMid meet" style="width: 100%; height: 100%; transform: translate3d(0px, 0px, 0px); content-visibility: visible;"><defs><clipPath id="__lottie_element_2"><rect width="1440" height="415" x="0" y="0"></rect></clipPath><clipPath id="__lottie_element_5"><path d="M0,0 L1440,0 L1440,415 L0,415z"></path></clipPath><linearGradient id="__lottie_element_13" spreadMethod="pad" gradientUnits="userSpaceOnUse" x1="-1039.9207763671875" y1="1410.739990234375" x2="-3175.9375" y2="1869.97021484375"><stop offset="0%" stop-color="rgb(0,48,255)" stop-opacity="1"></stop><stop offset="100%" stop-color="rgb(204,1,255)" stop-opacity="1"></stop></linearGradient></defs><g clip-path="url(#__lottie_element_2)"><g clip-path="url(#__lottie_element_5)" transform="matrix(1,0,0,1,0,0)" opacity="1" style="display: block;"><g transform="matrix(0.9885926842689514,-0.15061381459236145,0.15061381459236145,0.9885926842689514,-64.99993896484375,167.8343963623047)" opacity="1" style="display: block;"><g opacity="1" transform="matrix(1,0,0,1,0,0)"><path fill="rgb(0,255,0)" fill-opacity="0" d=" M2508.438720703125,-197.20684814453125 C2508.438720703125,-197.20684814453125 -836.146240234375,-197.20684814453125 -836.146240234375,-197.20684814453125 C-836.146240234375,-197.20684814453125 -836.146240234375,591.6205444335938 -836.146240234375,591.6205444335938 C-836.146240234375,591.6205444335938 2508.438720703125,591.6205444335938 2508.438720703125,591.6205444335938 C2508.438720703125,591.6205444335938 2508.438720703125,-197.20684814453125 2508.438720703125,-197.20684814453125z"></path></g><g opacity="1" transform="matrix(1,0,0,1,0,0)"><path stroke="url(#__lottie_element_13)" stroke-linecap="round" stroke-linejoin="miter" fill-opacity="0" stroke-miterlimit="0" stroke-opacity="1" stroke-width="60" d=" M1604.9510498046875,30.73699951171875 C1608.9859619140625,20.60700035095215 1611.613037109375,10.190999984741211 1612.29296875,0"></path></g></g></g></g></svg>